<?xml version="1.0" encoding="UTF-8" standalone="no"?>
<!-- Created with Inkscape (http://www.inkscape.org/) -->

<svg
   width="32"
   height="32"
   viewBox="0 0 32 32"
   version="1.1"
   id="svg1"
   inkscape:version="1.4.2 (ebf0e940, 2025-05-08)"
   sodipodi:docname="list.svg"
   xmlns:inkscape="http://www.inkscape.org/namespaces/inkscape"
   xmlns:sodipodi="http://sodipodi.sourceforge.net/DTD/sodipodi-0.dtd"
   xmlns="http://www.w3.org/2000/svg"
   xmlns:svg="http://www.w3.org/2000/svg">
  <sodipodi:namedview
     id="namedview1"
     pagecolor="#505050"
     bordercolor="#eeeeee"
     borderopacity="1"
     inkscape:showpageshadow="0"
     inkscape:pageopacity="0"
     inkscape:pagecheckerboard="0"
     inkscape:deskcolor="#505050"
     inkscape:document-units="px"
     inkscape:zoom="30.013987"
     inkscape:cx="16.642241"
     inkscape:cy="15.859273"
     inkscape:window-width="1712"
     inkscape:window-height="1073"
     inkscape:window-x="0"
     inkscape:window-y="39"
     inkscape:window-maximized="0"
     inkscape:current-layer="layer1" />
  <defs
     id="defs1">
    <inkscape:path-effect
       effect="spiro"
       id="path-effect13"
       is_visible="true"
       lpeversion="1" />
    <inkscape:path-effect
       effect="spiro"
       id="path-effect12"
       is_visible="true"
       lpeversion="1" />
    <inkscape:path-effect
       effect="spiro"
       id="path-effect11"
       is_visible="true"
       lpeversion="1" />
    <inkscape:path-effect
       effect="spiro"
       id="path-effect10"
       is_visible="true"
       lpeversion="1" />
    <inkscape:path-effect
       effect="spiro"
       id="path-effect9"
       is_visible="true"
       lpeversion="1" />
    <inkscape:path-effect
       effect="spiro"
       id="path-effect8"
       is_visible="true"
       lpeversion="1" />
    <inkscape:path-effect
       effect="spiro"
       id="path-effect7"
       is_visible="true"
       lpeversion="1" />
    <inkscape:path-effect
       effect="spiro"
       id="path-effect6"
       is_visible="true"
       lpeversion="1" />
    <inkscape:path-effect
       effect="spiro"
       id="path-effect5"
       is_visible="true"
       lpeversion="1" />
    <inkscape:path-effect
       effect="spiro"
       id="path-effect4"
       is_visible="true"
       lpeversion="1" />
  </defs>
  <g
     inkscape:label="Layer 1"
     inkscape:groupmode="layer"
     id="layer1">
    <rect
       style="fill:#000000;stroke-width:0.935205"
       id="rect2"
       width="18.303534"
       height="25.716793"
       x="7.0196347"
       y="3.3458071" />
    <rect
       style="fill:#ffffff;stroke-width:1.02021"
       id="rect3"
       width="16.860245"
       height="24.207899"
       x="7.8068833"
       y="4.0018477"
       ry="0" />
    <path
       style="fill:#000000"
       d="m 9.9716631,7.8959291 c 0.1663589,0.024122 0.3302689,0.065099 0.4884079,0.122102 0.160142,0.057725 0.315074,0.1320374 0.480869,0.1706317 0.0829,0.019297 0.168404,0.029469 0.253302,0.02341 0.0849,-0.00606 0.169299,-0.028757 0.242645,-0.071939 0.09405,-0.055371 0.166093,-0.1416951 0.225669,-0.2331366 0.05958,-0.091442 0.108566,-0.1894604 0.168546,-0.280638 0.05998,-0.091178 0.132866,-0.1769368 0.227639,-0.2310571 0.04739,-0.02706 0.09987,-0.045769 0.154115,-0.051717 0.05424,-0.00595 0.110251,0.00114 0.160146,0.023236 0.07368,0.032629 0.130213,0.095893 0.170449,0.1657144 0.04024,0.069821 0.06607,0.1467908 0.09409,0.2223487 0.02802,0.075558 0.05902,0.1512334 0.107836,0.2153477 0.04882,0.064114 0.117896,0.1162916 0.19744,0.1292012 0.04146,0.00673 0.0844,0.00257 0.124481,-0.010009 0.04008,-0.01258 0.07734,-0.033441 0.110356,-0.059403 0.06604,-0.051924 0.114399,-0.1231262 0.153857,-0.1972944 0.03946,-0.074168 0.07105,-0.1523018 0.110206,-0.2266278 0.03916,-0.074326 0.0869,-0.1458617 0.15231,-0.1985776 0.06167,-0.0497 0.136138,-0.080446 0.203504,-0.1221019 0.04681,-0.028947 0.09015,-0.063145 0.136046,-0.093529 0.04589,-0.030384 0.09515,-0.05725 0.148858,-0.069274 0.05391,-0.01207 0.11067,-0.00863 0.164059,0.00559 0.05339,0.014213 0.103579,0.038939 0.15002,0.068867 0.09288,0.059857 0.170689,0.1398969 0.255731,0.21045 0.05942,0.049295 0.124199,0.095942 0.162802,0.1628027 0.02298,0.039794 0.03534,0.084634 0.05114,0.1277832 0.0158,0.043149 0.03621,0.08635 0.07096,0.1164208 0.02981,0.025804 0.06875,0.040141 0.108096,0.042712 0.03935,0.00257 0.07902,-0.00624 0.114896,-0.02259 0.07176,-0.032699 0.126749,-0.093568 0.172803,-0.1575837 0.04605,-0.064016 0.08557,-0.1330327 0.137886,-0.1920409 0.02616,-0.029504 0.05553,-0.056425 0.08891,-0.077423 0.03337,-0.020997 0.07089,-0.035969 0.110025,-0.040782 0.07562,-0.0093 0.154047,0.021386 0.206784,0.076372 0.05274,0.054986 0.07995,0.1323663 0.07812,0.2085324 -3.26e-4,0.013576 -0.0015,0.027206 0,0.040701 0.002,0.017752 0.0087,0.034892 0.01902,0.049508 0.01027,0.014616 0.02402,0.026712 0.0396,0.035444 0.03117,0.017464 0.06914,0.02103 0.103964,0.013035 0.03482,-0.00799 0.06656,-0.026969 0.09269,-0.051337 0.02613,-0.024367 0.04691,-0.054003 0.06426,-0.085238 0.03469,-0.06247 0.05616,-0.1316256 0.09135,-0.1938159 0.0176,-0.031095 0.03875,-0.060497 0.06526,-0.084444 0.02652,-0.023947 0.05866,-0.042301 0.09366,-0.049459 0.05086,-0.0104 0.104378,0.00352 0.149731,0.028779 0.04535,0.025262 0.08373,0.061209 0.120553,0.097799 0.03683,0.03659 0.07288,0.07443 0.115128,0.104602 0.04225,0.030172 0.0918,0.052568 0.143697,0.053724 0.03435,7.652e-4 0.06859,-0.00785 0.09963,-0.022593 0.03104,-0.014742 0.05899,-0.035485 0.08389,-0.059164 0.0498,-0.04736 0.08725,-0.1058777 0.127351,-0.1616895 0.0401,-0.055812 0.0846,-0.110596 0.143536,-0.1459401 0.02947,-0.017672 0.06233,-0.030151 0.09648,-0.034034 0.03414,-0.00388 0.06958,0.00108 0.100333,0.016414 0.03628,0.018087 0.0645,0.049664 0.08474,0.084789 0.02024,0.035125 0.03316,0.07392 0.04513,0.1126503 0.01198,0.03873 0.02322,0.077886 0.04048,0.1145668 0.01726,0.036681 0.04106,0.071173 0.07385,0.095 0.03856,0.028016 0.08781,0.039533 0.135353,0.036132 0.04754,-0.0034 0.0934,-0.021034 0.133732,-0.046431 0.08067,-0.050794 0.13827,-0.1300985 0.196375,-0.2056751 0.0581,-0.075577 0.121767,-0.1517332 0.208339,-0.1916473 0.04329,-0.019957 0.09178,-0.030001 0.139083,-0.024131 0.0473,0.00587 0.09316,0.028463 0.123233,0.065447 0.03147,0.03871 0.04368,0.089385 0.05125,0.1386976 0.0076,0.049312 0.0116,0.099895 0.03015,0.146207 0.02172,0.054221 0.0629,0.099766 0.112742,0.1302144 0.04985,0.030448 0.107998,0.046184 0.16634,0.049006 0.116684,0.00564 0.23049,-0.039011 0.331428,-0.09782 0.07901,-0.046032 0.154982,-0.1020841 0.244204,-0.122102 0.08692,-0.019501 0.177273,-0.00271 0.265355,0.01059 0.08808,0.0133 0.181064,0.022543 0.263754,-0.01059 0.02669,-0.010693 0.05158,-0.025571 0.07852,-0.035607 0.01347,-0.00502 0.02748,-0.00881 0.0418,-0.010082 0.01432,-0.00127 0.02899,5.08e-5 0.04249,0.00499 0.02313,0.00846 0.04199,0.02787 0.04978,0.05124 0.0078,0.02337 0.0043,0.050212 -0.0091,0.070862"
       id="path4"
       inkscape:path-effect="#path-effect4"
       inkscape:original-d="m 9.9716631,7.8959291 c 0.1595529,0.050448 0.3296759,0.069191 0.4884079,0.122102 0.284825,0.094942 0.693103,0.2842235 0.976816,0.122102 0.232778,-0.1330158 0.664713,-0.86378 0.936115,-0.7733126 0.206054,0.068685 0.454587,0.7902233 0.56981,0.732612 0.230996,-0.1154983 0.456853,-0.5169901 0.65121,-0.6919114 0.0588,-0.05292 0.137682,-0.078221 0.203504,-0.1221019 0.131708,-0.087805 0.139822,-0.1386223 0.284904,-0.1628027 0.31416,-0.05236 0.390264,0.060473 0.56981,0.2849046 0.04794,0.059928 0.123317,0.096994 0.162802,0.1628027 0.03205,0.053424 0.0573,0.2118016 0.122102,0.244204 0.109653,0.054826 0.42649,-0.4477073 0.732612,-0.4477073 0.170119,0 0.234444,0.1335207 0.284905,0.2849046 0.0043,0.012871 -0.0096,0.031108 0,0.040701 0.09371,0.093708 0.454138,-0.3373881 0.569809,-0.366306 0.311958,-0.077989 0.0024,0.4019556 0.529109,0.2849047 0.206953,-0.04599 0.54706,-0.4070067 0.651211,-0.4070067 0.02163,0 -0.01787,0.4070067 0.244204,0.4070067 0.372848,0 0.608108,-0.2569705 0.936115,-0.366306 0.08028,-0.026761 0.06217,0.2464369 0.0814,0.2849046 0.06481,0.1296234 0.513524,0.1056479 0.61051,0.081401 0.08829,-0.022073 0.155912,-0.100029 0.244204,-0.122102 0.165901,-0.041475 0.361316,0.033558 0.529109,0 0.05485,-0.01097 0.131774,-0.087244 0.162802,-0.040701 0.0238,0.035697 0.02713,0.081401 0.0407,0.122102"
       transform="translate(1.2301931,1.4091303)" />
    <ellipse
       style="fill:#000000"
       id="path6"
       cx="9.6290579"
       cy="9.315917"
       rx="0.68219799"
       ry="0.65983087" />
    <ellipse
       style="fill:#000000"
       id="path6-0"
       cx="9.5862074"
       cy="12.509783"
       rx="0.68219799"
       ry="0.65983087" />
    <ellipse
       style="fill:#000000"
       id="path6-0-7"
       cx="9.5638399"
       cy="15.525628"
       rx="0.68219799"
       ry="0.65983087" />
    <path
       style="fill:#000000"
       d="m 11.362511,12.3914 c 0.118147,-0.01252 0.233478,-0.05096 0.335507,-0.111836 0.114701,-0.06843 0.210974,-0.163564 0.320327,-0.240255 0.05468,-0.03834 0.113,-0.07223 0.175979,-0.09445 0.06298,-0.02222 0.130943,-0.03246 0.197076,-0.02317 0.09867,0.01386 0.187898,0.07077 0.254454,0.144915 0.06655,0.07415 0.112284,0.164737 0.148154,0.257693 0.02291,0.05938 0.04224,0.120446 0.07223,0.176585 0.02999,0.05614 0.07216,0.108065 0.129073,0.136555 0.03972,0.01988 0.0851,0.02741 0.129405,0.02427 0.0443,-0.0031 0.08755,-0.01669 0.127131,-0.03683 0.07917,-0.04029 0.142595,-0.105572 0.200124,-0.173257 0.05753,-0.06768 0.111165,-0.139382 0.177787,-0.198138 0.06662,-0.05876 0.149112,-0.104578 0.237871,-0.108127 0.0732,-0.0029 0.147146,0.0243 0.200974,0.07398 0.05383,0.04969 0.08687,0.121227 0.0898,0.194423 0.05304,0.02758 0.09427,0.07706 0.111836,0.134203 0.0094,0.03049 0.01262,0.06371 0.03023,0.09031 0.0088,0.0133 0.02136,0.02457 0.03655,0.02945 0.0076,0.0024 0.01575,0.0032 0.02362,0.002 0.0079,-0.0013 0.01544,-0.0046 0.02144,-0.0099 0.0064,-0.0056 0.01078,-0.01303 0.01407,-0.0208 0.0033,-0.0078 0.0056,-0.01594 0.0083,-0.02393 0.01386,-0.04056 0.03947,-0.07612 0.06794,-0.108164 0.02847,-0.03204 0.06008,-0.06117 0.08863,-0.09314 0.06207,-0.06949 0.109144,-0.151755 0.174881,-0.217784 0.03287,-0.03302 0.07058,-0.06189 0.113438,-0.08014 0.04286,-0.01825 0.0912,-0.02542 0.136657,-0.01521 0.04002,0.009 0.07647,0.03114 0.10544,0.06017 0.02897,0.02903 0.0507,0.06475 0.06649,0.102599 0.03159,0.0757 0.03968,0.158708 0.05174,0.23984 0.01501,0.100954 0.03744,0.202965 0.08947,0.290773 0.0082,0.01386 0.01718,0.02737 0.02814,0.03917 0.01096,0.0118 0.02403,0.02189 0.03896,0.02793 0.01467,0.0059 0.03089,0.0078 0.04661,0.0059 0.01572,-0.0019 0.03093,-0.0074 0.04448,-0.01557 0.02711,-0.01635 0.04709,-0.04287 0.05968,-0.07192 0.02518,-0.05809 0.0221,-0.123834 0.02817,-0.186856 0.0162,-0.168288 0.10208,-0.326366 0.225032,-0.44241 0.122951,-0.116044 0.281048,-0.191457 0.445983,-0.228604 0.04426,-0.01 0.08911,-0.0173 0.134203,-0.02237 0.04461,-0.005 0.08999,-0.0078 0.134203,0 0.05596,0.0099 0.10834,0.03666 0.151611,0.07349 0.04327,0.03684 0.07765,0.08347 0.103506,0.134079 0.05171,0.101212 0.0692,0.216137 0.08039,0.329239 0.0055,0.05542 0.01029,0.113143 0.03862,0.161091 0.01417,0.02397 0.0343,0.04489 0.05929,0.05718 0.02499,0.01229 0.05501,0.01533 0.08103,0.0054 0.01468,-0.0056 0.02772,-0.0151 0.03837,-0.02665 0.01066,-0.01154 0.01899,-0.0251 0.02551,-0.0394 0.01302,-0.0286 0.01877,-0.05985 0.02559,-0.09053 0.02956,-0.133038 0.08203,-0.262352 0.164625,-0.370752 0.0826,-0.108401 0.196617,-0.195015 0.327452,-0.233161 0.0723,-0.02108 0.148518,-0.02722 0.223671,-0.02237 0.04535,0.0029 0.09053,0.0098 0.134203,0.02237 0.155959,0.04477 0.285387,0.160672 0.369117,0.299657 0.08373,0.138985 0.125247,0.299816 0.145328,0.460826 0.0036,0.02908 0.0066,0.05834 0.01356,0.0868 0.007,0.02847 0.01812,0.05637 0.03649,0.0792 0.01838,0.02283 0.04455,0.04023 0.0736,0.0441 0.01452,0.0019 0.02956,4.45e-4 0.04323,-0.0048 0.01367,-0.0053 0.02591,-0.01441 0.03442,-0.02633 0.0097,-0.01359 0.01428,-0.03012 0.02237,-0.04473 0.01542,-0.02787 0.04241,-0.04698 0.0671,-0.0671 0.127484,-0.103891 0.208774,-0.252637 0.284849,-0.398439 0.07607,-0.145802 0.152722,-0.296066 0.27433,-0.406778 0.04752,-0.04326 0.10101,-0.07955 0.15657,-0.111836 0.141739,-0.08235 0.299462,-0.139556 0.462639,-0.15522 0.163178,-0.01566 0.331884,0.01146 0.476781,0.08812 0.04428,0.02343 0.0866,0.05149 0.134203,0.0671 0.02922,0.0096 0.05981,0.01426 0.08947,0.02237 0.07071,0.01934 0.136094,0.0589 0.184367,0.114072 0.04827,0.05517 0.07897,0.125935 0.08404,0.199068 0.0039,0.05598 -0.0069,0.112122 -0.0041,0.168165 0.0014,0.02802 0.0063,0.05616 0.01759,0.08182 0.01134,0.02566 0.0295,0.0488 0.0536,0.06315 0.02127,0.01267 0.04625,0.01805 0.07098,0.01907 0.02473,0.001 0.04943,-0.0021 0.07396,-0.0055 0.02453,-0.0033 0.04914,-0.0069 0.07389,-0.0067 0.02475,1.85e-4 0.04988,0.0043 0.07195,0.01548 0.0037,0.0019 0.0074,0.004 0.01156,0.0046 0.0021,2.78e-4 0.0042,1.45e-4 0.0062,-5.96e-4 0.0019,-7.42e-4 0.0037,-0.0021 0.0047,-0.004 8.99e-4,-0.0017 0.0011,-0.0037 9.7e-4,-0.0056 -1.51e-4,-0.0019 -6.56e-4,-0.0038 -0.0011,-0.0056 -4.89e-4,-0.0019 -9.65e-4,-0.0037 -0.0011,-0.0056 -9.2e-5,-0.0019 2.27e-4,-0.0039 0.0012,-0.0055 0.0011,-0.0017 0.0028,-0.003 0.0048,-0.0036 0.0019,-6.09e-4 0.004,-6.32e-4 0.006,-3.12e-4 0.004,6.41e-4 0.0077,0.0026 0.01154,0.0039 0.0062,0.0021 0.01295,0.0024 0.0193,8.54e-4 0.0063,-0.0015 0.01226,-0.0048 0.01687,-0.0094 0.0046,-0.0046 0.0079,-0.01052 0.0094,-0.01687 0.0015,-0.0063 0.0012,-0.01311 -8.54e-4,-0.0193"
       id="path7"
       inkscape:path-effect="#path-effect7"
       inkscape:original-d="m 11.362511,12.3914 c 0.126936,0.0067 0.236516,-0.03484 0.335507,-0.111836 0.263799,-0.205177 0.3374,-0.357874 0.693382,-0.357874 0.24148,0 0.324974,0.20076 0.402608,0.402608 0.02327,0.0605 0.05377,0.350025 0.201305,0.31314 0.253463,-0.06336 0.591243,-0.548292 0.872318,-0.492077 0.159131,0.03183 0.20949,0.154609 0.290773,0.268406 0.08611,0.08611 0.04955,0.04078 0.111836,0.134203 0.0084,0.01253 0.07533,0.148343 0.111836,0.111835 0.01179,-0.01179 0.01312,-0.03086 0.02237,-0.04473 0.03797,-0.05695 0.117803,-0.150907 0.15657,-0.201304 0.114951,-0.149437 0.220419,-0.31314 0.424976,-0.31314 0.199068,0 0.184853,0.260275 0.223671,0.402608 0.02668,0.09784 0.06033,0.193641 0.08947,0.290773 0.0013,0.0043 0.0386,0.0956 0.0671,0.0671 0.06555,-0.06555 0.126275,-0.194678 0.178937,-0.268406 0.192819,-0.269946 0.375169,-0.509644 0.671015,-0.671014 0.05397,-0.02944 0.07611,-0.02237 0.134203,-0.02237 0.04473,0 0.09419,-0.02 0.134203,0 0.1741,0.08705 0.24515,0.374169 0.335507,0.536812 0.06024,0.108431 0.125725,0.276883 0.178937,0.223671 0.0425,-0.0425 0.0572,-0.105857 0.08947,-0.15657 0.123095,-0.193435 0.280721,-0.513331 0.492077,-0.603913 0.05957,-0.02553 0.154397,-0.02237 0.223671,-0.02237 0.04879,0 0.09004,-0.0071 0.134203,0.02237 0.15377,0.102514 0.413833,0.584413 0.514445,0.760483 0.01517,0.02655 0.138848,0.241393 0.201304,0.178938 0.01179,-0.01179 0.01195,-0.03172 0.02237,-0.04473 0.01976,-0.0247 0.04812,-0.0418 0.0671,-0.0671 0.192217,-0.256289 0.302201,-0.599635 0.559179,-0.805217 0.05008,-0.04007 0.100265,-0.08112 0.15657,-0.111836 0.15028,-0.08197 0.76315,-0.09228 0.93942,-0.0671 0.09425,0.01347 0.04561,0.02913 0.134203,0.0671 0.02825,0.01211 0.06121,0.01026 0.08947,0.02237 0.117997,0.05057 0.237266,0.188582 0.268406,0.31314 0.02512,0.100467 -0.05347,0.252854 0.0671,0.31314 0.08887,0.04444 0.202332,0.06659 0.290773,0.02237 0.0067,-0.0033 0.0171,0.0053 0.02237,0 0.0053,-0.0053 -0.0053,-0.01709 0,-0.02237 0.0053,-0.0053 0.0171,0.0053 0.02237,0 0.01691,-0.01691 0.0097,-0.04473 0.04473,-0.04473" />
    <path
       style="fill:#000000"
       d="m 11.205941,15.567535 c 0.0051,-0.02169 0.01772,-0.04155 0.03516,-0.05544 0.01744,-0.01389 0.03961,-0.02172 0.0619,-0.02186 0.02229,-1.43e-4 0.04456,0.0074 0.06218,0.02106 0.01762,0.01366 0.03046,0.03336 0.03587,0.05498 0.0054,0.02163 0.0033,0.04505 -0.0058,0.0654 -0.0091,0.02035 -0.02521,0.03748 -0.04495,0.04785 -0.01974,0.01037 -0.04299,0.01389 -0.06491,0.0098 -0.02192,-0.004 -0.04238,-0.01564 -0.05712,-0.03237 -0.02111,-0.02397 -0.02972,-0.05839 -0.02237,-0.08947 0.0059,-0.02483 0.02137,-0.04697 0.04171,-0.06237 0.02034,-0.0154 0.04529,-0.02424 0.07068,-0.02681 0.05077,-0.0052 0.101291,0.01414 0.144479,0.04132 0.04319,0.02718 0.08083,0.06218 0.121448,0.09307 0.04062,0.03089 0.08578,0.05829 0.136123,0.06663 0.06174,0.01022 0.125408,-0.0096 0.178977,-0.04193 0.05357,-0.03235 0.09874,-0.07662 0.143731,-0.12012 0.04499,-0.0435 0.09095,-0.08711 0.145521,-0.117755 0.05457,-0.03064 0.119448,-0.04744 0.180418,-0.03333 0.05923,0.01371 0.109091,0.05527 0.144456,0.104728 0.03536,0.04945 0.05795,0.10672 0.07922,0.163678 0.008,0.02136 0.01605,0.0432 0.0304,0.06093 0.0072,0.0089 0.0159,0.01659 0.02602,0.02182 0.01013,0.0052 0.02171,0.0079 0.03305,0.0067 0.0136,-0.0014 0.02631,-0.0084 0.03595,-0.01806 0.0096,-0.0097 0.01634,-0.02204 0.02069,-0.03501 0.0087,-0.02593 0.0082,-0.05388 0.01047,-0.08114 0.0082,-0.0973 0.05537,-0.191146 0.129925,-0.254195 0.07456,-0.06305 0.175869,-0.09401 0.272684,-0.08131 0.09949,0.01305 0.191779,0.07217 0.246038,0.156571 0.03396,0.05283 0.05349,0.116749 0.04473,0.178937 -0.004,0.0283 -0.01367,0.05584 -0.01428,0.08441 -3.08e-4,0.01428 0.0017,0.02881 0.0077,0.0418 0.0059,0.013 0.016,0.02438 0.02897,0.03036 0.0086,0.0039 0.01819,0.0054 0.02759,0.0047 0.0094,-7.84e-4 0.01856,-0.0038 0.02676,-0.0085 0.0164,-0.0093 0.02864,-0.02489 0.03652,-0.04202 0.01577,-0.03427 0.01495,-0.07349 0.02096,-0.110734 0.0095,-0.05911 0.0369,-0.114582 0.07424,-0.161385 0.03734,-0.0468 0.0844,-0.08524 0.135191,-0.116935 0.101588,-0.06339 0.217119,-0.09997 0.327385,-0.146656 0.01783,-0.0076 0.03564,-0.01541 0.05438,-0.0203 0.01874,-0.0049 0.03866,-0.0067 0.05746,-0.0021 0.01794,0.0044 0.03417,0.01463 0.04721,0.02772 0.01304,0.01309 0.02303,0.02899 0.03079,0.04575 0.01552,0.03354 0.0223,0.07035 0.03383,0.105463 0.02088,0.06356 0.05703,0.120782 0.09205,0.177785 0.03501,0.057 0.06963,0.115455 0.08689,0.180089 0.01516,0.0568 0.01635,0.116269 0.02457,0.174484 0.0082,0.05821 0.02491,0.117931 0.0649,0.161023 0.02987,0.03218 0.07043,0.05248 0.111836,0.0671 0.08562,0.03022 0.179082,0.03866 0.268406,0.02237 0.132314,-0.02414 0.24862,-0.09965 0.37277,-0.15138 0.06208,-0.02587 0.127312,-0.04605 0.194437,-0.05014 0.06712,-0.0041 0.136559,0.0088 0.193276,0.04495 0.0074,0.0047 0.01486,0.0099 0.02352,0.01122 0.0043,6.55e-4 0.0089,2.59e-4 0.01284,-0.0016 0.0039,-0.0019 0.0072,-0.0054 0.0084,-0.0096 9.96e-4,-0.0036 4.22e-4,-0.0075 -1.18e-4,-0.01119 -5.41e-4,-0.0037 -0.001,-0.0076 1.18e-4,-0.01118 6.53e-4,-0.002 0.0018,-0.0039 0.0033,-0.0054 0.0015,-0.0015 0.0033,-0.0027 0.0053,-0.0035 0.0039,-0.0016 0.0084,-0.0018 0.0126,-0.0011 0.0084,0.0015 0.01575,0.0064 0.0235,0.01004 0.02,0.0093 0.04339,0.0099 0.06476,0.0044 0.02137,-0.0055 0.0409,-0.01679 0.05846,-0.03016 0.03512,-0.02675 0.06332,-0.06219 0.100455,-0.08606 0.04292,-0.02758 0.09447,-0.03764 0.14471,-0.04653 0.05024,-0.0089 0.101805,-0.01756 0.146063,-0.04294 0.01459,-0.0084 0.02815,-0.01844 0.04261,-0.02704 0.01446,-0.0086 0.03014,-0.01582 0.04686,-0.01769 0.01115,-0.0012 0.0224,-9.2e-5 0.03358,8e-4 0.01118,8.92e-4 0.02254,0.0015 0.03352,-8e-4 0.01643,-0.0035 0.03075,-0.01315 0.04465,-0.02257 0.0139,-0.0094 0.02833,-0.019 0.04482,-0.02216 0.01102,-0.0021 0.02236,-0.0012 0.03354,-2.49e-4 0.01118,9.75e-4 0.02249,0.002 0.03356,2.49e-4 0.01656,-0.0027 0.03143,-0.01146 0.04549,-0.02061 0.01406,-0.0092 0.02802,-0.01897 0.04398,-0.02412 0.0251,-0.0081 0.05229,-0.0038 0.07832,4.02e-4 0.02603,0.0042 0.05333,0.0082 0.07825,-4.02e-4 0.01578,-0.0054 0.02948,-0.0156 0.04474,-0.02237 0.0248,-0.01101 0.05312,-0.01264 0.07981,-0.0077 0.02668,0.0049 0.05188,0.01612 0.07528,0.02985 0.04681,0.02745 0.0873,0.06514 0.135683,0.08971 0.0329,0.01671 0.06862,0.02692 0.103464,0.03906 0.03484,0.01214 0.06961,0.02665 0.09784,0.05041 0.01614,0.01358 0.02976,0.02987 0.04473,0.04473 0.04355,0.04321 0.09839,0.07395 0.156123,0.0947 0.05774,0.02075 0.118505,0.03189 0.179384,0.03951 0.163096,0.02041 0.3285,0.01609 0.492078,0 0.06165,-0.0061 0.124942,-0.01437 0.178937,-0.04473 0.02344,-0.01318 0.04448,-0.03019 0.0671,-0.04473 0.06078,-0.03908 0.131394,-0.05948 0.200948,-0.07909 0.06955,-0.01961 0.14025,-0.03939 0.201661,-0.07748 0.10339,-0.06413 0.170564,-0.173727 0.268406,-0.246038 0.09747,-0.07204 0.218539,-0.102436 0.335507,-0.134203 0.125667,-0.03413 0.251266,-0.07177 0.380826,-0.08485 0.129561,-0.01308 0.265372,6.3e-5 0.379657,0.06248 0.03816,0.02084 0.07336,0.04683 0.111836,0.0671 0.06915,0.03642 0.146744,0.05328 0.223671,0.0671 0.06366,0.01144 0.128013,0.02109 0.19269,0.02016 0.06468,-9.27e-4 0.130087,-0.01284 0.187552,-0.04253 0.07209,-0.03725 0.129219,-0.102542 0.15657,-0.178938"
       id="path8"
       inkscape:path-effect="#path-effect9"
       inkscape:original-d="m 11.205941,15.567535 c 0.0075,0.02982 -0.0075,0.09692 0.02237,0.08947 0.02982,-0.0075 -0.05046,-0.101953 -0.02237,-0.08947 0.208253,0.09256 0.276983,0.349297 0.514444,0.111835 0.22059,-0.22059 0.265081,-0.519676 0.648647,-0.31314 0.122218,0.06581 0.144111,0.168955 0.223672,0.268406 0.0045,0.0056 0.07796,0.106728 0.08947,0.08947 0.02774,-0.04162 0.04025,-0.09201 0.0671,-0.134203 0.08447,-0.132732 0.254015,-0.279785 0.402609,-0.335508 0.190893,-0.07158 0.205085,-0.0072 0.246038,0.156571 0.01491,0.05965 0.03604,0.118073 0.04473,0.178937 0.01072,0.07507 -0.02915,0.199503 0.02237,0.15657 0.04927,-0.04106 0.07078,-0.107299 0.111835,-0.15657 0.15359,-0.184308 0.302635,-0.358068 0.536812,-0.424976 0.02934,-0.0084 0.07635,-0.03419 0.111836,-0.02237 0.0657,0.0219 0.09159,0.124946 0.111835,0.178937 0.04579,0.122115 0.14665,0.228723 0.178938,0.357874 0.0062,0.02463 0.08788,0.33392 0.08947,0.335507 0.004,0.004 0.101561,0.06368 0.111836,0.0671 0.08218,0.02739 0.18125,0.02237 0.268406,0.02237 0.265048,0 0.524593,-0.03862 0.760483,-0.15657 0.01334,-0.0067 0.03419,0.01054 0.04473,0 0.0053,-0.0053 -0.0067,-0.01903 0,-0.02237 0.01334,-0.0067 0.03059,0.0047 0.04473,0 0.05626,-0.01875 0.157176,-0.08524 0.223672,-0.111836 0.09613,-0.03845 0.193513,-0.06515 0.290773,-0.08947 0.03235,-0.0081 0.05677,-0.0382 0.08947,-0.04473 0.02193,-0.0044 0.04517,0.0044 0.0671,0 0.0327,-0.0065 0.05677,-0.03819 0.08947,-0.04473 0.02193,-0.0044 0.04517,0.0044 0.0671,0 0.0327,-0.0065 0.05712,-0.03665 0.08947,-0.04473 0.04355,-0.01089 0.116472,0.0067 0.15657,0 0.01645,-0.0027 0.02856,-0.01832 0.04474,-0.02237 0.121874,-0.03047 0.203023,0.05919 0.290773,0.111835 0.0607,0.03642 0.142439,0.04532 0.201304,0.08947 0.01687,0.01265 0.02665,0.03388 0.04473,0.04473 0.09671,0.05802 0.230179,0.09909 0.335507,0.134203 0.05918,0.01973 0.430497,0.0088 0.492078,0 0.06086,-0.0087 0.122427,-0.02052 0.178937,-0.04473 0.02471,-0.01059 0.04184,-0.03555 0.0671,-0.04473 0.140291,-0.05101 0.279975,-0.06459 0.402609,-0.15657 0.09649,-0.07237 0.171629,-0.173456 0.268406,-0.246038 0.09319,-0.06989 0.22833,-0.107409 0.335507,-0.134203 0.07515,-0.01879 0.666544,-0.05368 0.760483,-0.02237 0.03564,0.01188 0.07015,0.05668 0.111836,0.0671 0.07211,0.01803 0.150491,0.05665 0.223671,0.0671 0.08344,0.01192 0.30387,0.02855 0.380242,-0.02237 0.06068,-0.04045 0.115198,-0.123776 0.15657,-0.178938" />
    <path
       style="fill:#000000"
       d="m 11.138839,6.0614969 c -0.06892,0.062659 -0.104117,0.1604275 -0.09095,0.2526396 0.01317,0.092212 0.07433,0.1762154 0.158045,0.2170705 0.07203,0.035153 0.15701,0.038512 0.234808,0.019248 0.0778,-0.019264 0.148996,-0.059866 0.212535,-0.1087174 0.108808,-0.083656 0.196484,-0.1910377 0.290773,-0.2907729 0.124551,-0.1317452 0.261686,-0.2510953 0.386699,-0.3824017 0.125014,-0.1313065 0.239153,-0.2769282 0.306682,-0.4451827 0.06507,-0.1621291 0.08561,-0.3419502 0.171197,-0.4942464 0.0428,-0.076148 0.102779,-0.1447145 0.180116,-0.1853242 0.03867,-0.020305 0.08133,-0.033348 0.124908,-0.036333 0.04357,-0.00298 0.08803,0.00424 0.127692,0.022522 0.04758,0.021925 0.08717,0.059176 0.116509,0.1025845 0.02934,0.043409 0.04885,0.092851 0.06243,0.1434541 0.04488,0.1672831 0.02623,0.3463575 0.06889,0.5142199 0.02133,0.083931 0.05908,0.1656005 0.120751,0.2263962 0.03083,0.030398 0.06742,0.055211 0.107811,0.070821 0.04039,0.015611 0.0846,0.021859 0.127525,0.016147 0.0727,-0.00967 0.137181,-0.052554 0.189859,-0.1035872 0.05268,-0.051033 0.09605,-0.1107862 0.145648,-0.1648186 0.0924,-0.1006619 0.207227,-0.1813811 0.335066,-0.2296263 0.12784,-0.048245 0.268657,-0.063459 0.40305,-0.03878 0.07316,0.013435 0.146083,0.039633 0.201305,0.089469 0.05459,0.049266 0.08821,0.118459 0.105801,0.1898591 0.01759,0.0714 0.02045,0.1456211 0.01919,0.2191449 -0.0025,0.1470475 -0.01316,0.2938786 -0.01316,0.4409476 v 0.6710144 c 0,0.017957 -5e-4,0.035987 -0.0036,0.053667 -0.0031,0.01768 -0.0088,0.034799 -0.0142,0.051917 -0.0054,0.017118 -0.01061,0.034791 -0.0095,0.052711 5.78e-4,0.00896 0.0028,0.017907 0.0074,0.025647 0.0046,0.00774 0.0115,0.014215 0.01991,0.017361 0.007,0.00264 0.01477,0.00287 0.02228,0.0023 0.0075,-5.709e-4 0.01494,-0.00191 0.02245,-0.0023 0.01546,-7.962e-4 0.03087,0.00245 0.04565,0.00704 0.01478,0.00459 0.02911,0.010525 0.04382,0.015324 0.06732,0.021955 0.141279,0.01925 0.209234,-6.328e-4 0.06796,-0.019882 0.13025,-0.056274 0.185934,-0.1000066 0.111368,-0.087466 0.196715,-0.203222 0.298214,-0.3019692 0.19532,-0.190025 0.445193,-0.3124496 0.693381,-0.4249758 0.129038,-0.058505 0.259762,-0.115689 0.376427,-0.1960815 0.116664,-0.080393 0.219868,-0.186709 0.272221,-0.3183629 0.03472,-0.087306 0.0458,-0.1818286 0.06372,-0.2740588 0.01793,-0.09223 0.04448,-0.1861125 0.104015,-0.2587979 0.02977,-0.036343 0.06763,-0.066606 0.111224,-0.084121 0.04359,-0.017515 0.09303,-0.021756 0.138041,-0.00829 0.04501,0.013461 0.08494,0.045328 0.104831,0.087885 0.0099,0.021279 0.01487,0.044949 0.01374,0.068411 -0.0011,0.023462 -0.0083,0.046666 -0.02113,0.066368 -0.01728,0.026623 -0.04361,0.04576 -0.0671,0.067101 -0.05094,0.046266 -0.08962,0.1041557 -0.134203,0.15657 -0.07081,0.083244 -0.156325,0.1524732 -0.234963,0.2283635 -0.07864,0.07589 -0.152129,0.1612053 -0.190013,0.2637137 -0.0058,0.015784 -0.01079,0.031907 -0.01748,0.047349 -0.0067,0.015442 -0.01523,0.030339 -0.02725,0.04212 -0.0075,0.0074 -0.01647,0.013595 -0.02237,0.022367 -0.0063,0.00935 -0.0086,0.021181 -0.0068,0.032314 0.0018,0.011133 0.0075,0.021513 0.01553,0.029388 0.0081,0.00788 0.01841,0.01328 0.02935,0.015978 0.01094,0.0027 0.02247,0.00274 0.03355,7.059e-4 0.02217,-0.00407 0.04215,-0.016208 0.05936,-0.030768 0.01721,-0.014561 0.03209,-0.031627 0.04798,-0.047618 0.100139,-0.1007795 0.237099,-0.155939 0.373757,-0.1947821 0.136659,-0.038843 0.27772,-0.06427 0.409093,-0.118358 0.111452,-0.045887 0.21481,-0.1119782 0.330584,-0.145495 0.05789,-0.016758 0.11889,-0.025078 0.178681,-0.017541 0.05979,0.00754 0.118392,0.03171 0.161749,0.073567 0.0465,0.04489 0.0728,0.1068207 0.08984,0.1691678 0.01704,0.062347 0.02601,0.126737 0.04437,0.1887066 0.02683,0.090553 0.07351,0.1753191 0.08947,0.2684057 0.0064,0.037571 0.0079,0.076567 0.02237,0.1118358 0.01218,0.029698 0.0333,0.055425 0.05913,0.074485 0.02583,0.01906 0.05623,0.031562 0.08771,0.037811 0.06297,0.012498 0.128714,1.292e-4 0.188664,-0.022827 0.08149,-0.031202 0.154323,-0.081249 0.223672,-0.1342029 0.172295,-0.131562 0.327879,-0.2834375 0.492077,-0.4249758 0.04411,-0.038021 0.08885,-0.075307 0.134203,-0.1118357"
       id="path11"
       inkscape:path-effect="#path-effect12"
       inkscape:original-d="m 11.138839,6.0614969 c 0.119594,0.078052 -0.02191,0.4029542 0.0671,0.4697101 0.12165,0.091238 0.365549,-0.028123 0.447343,-0.089469 0.109657,-0.082243 0.197131,-0.1906734 0.290773,-0.2907729 0.322837,-0.3451017 0.402356,-0.455072 0.693381,-0.8275844 0.179432,-0.2296728 0.365595,-0.514643 0.603913,-0.6933816 0.104148,-0.078111 0.173027,0.2184566 0.178937,0.2460386 0.04241,0.197906 0.04198,0.9807842 0.424976,0.8275845 0.136533,-0.054613 0.217554,-0.1858382 0.335507,-0.2684058 0.19939,-0.139573 0.489463,-0.2891269 0.738116,-0.2684058 0.09683,0.00807 0.149963,0.0039 0.201305,0.089469 0.153232,0.2553879 0.111835,0.5675518 0.111835,0.8499516 0,0.2236715 0,0.447343 0,0.6710144 0,0.054297 -0.0077,0.1974376 0,0.2013044 0.01334,0.00667 0.03003,-0.00245 0.04473,0 0.03032,0.00505 0.05892,0.025762 0.08947,0.022367 0.09899,-0.010999 0.605746,-0.3500274 0.693382,-0.4026086 0.319766,-0.1918598 0.368485,-0.1914568 0.693381,-0.4249758 0.224086,-0.1610615 0.432281,-0.3431539 0.648648,-0.5144444 0.01878,-0.014868 0.484972,-0.4026087 0.514444,-0.4026087 0.03163,0 -0.04473,0.044734 -0.0671,0.067101 -0.04861,0.048605 -0.08719,0.1064228 -0.134203,0.15657 -0.149574,0.1595448 -0.302865,0.3089101 -0.424976,0.4920772 -0.0185,0.027743 -0.02758,0.060877 -0.04473,0.089469 -0.0054,0.00904 -0.02708,0.012936 -0.02237,0.022367 0.02668,0.053349 0.120877,0.013661 0.178938,0 0.281905,-0.066331 0.516603,-0.2066415 0.78285,-0.3131401 0.137292,-0.054917 0.530532,-0.2098816 0.671014,-0.089469 0.109644,0.09398 0.106906,0.2304863 0.134203,0.3578744 0.0618,0.2884009 0.02011,0.037214 0.08947,0.2684057 0.01092,0.036414 0.0054,0.077832 0.02237,0.1118358 0.06103,0.1220686 0.226178,0.1319854 0.335507,0.089469 0.08104,-0.031514 0.150771,-0.086817 0.223672,-0.1342029 0.204804,-0.1331231 0.316449,-0.2688618 0.492077,-0.4249758 0.239262,-0.2126779 -0.01208,0.034451 0.134203,-0.1118357" />
  </g>
</svg>
