<?xml version="1.0" encoding="UTF-8" standalone="no"?>
<!-- Created with Inkscape (http://www.inkscape.org/) -->

<svg
   width="120"
   height="120"
   viewBox="0 0 120 120"
   version="1.1"
   id="svg1"
   inkscape:version="1.4.2 (ebf0e940, 2025-05-08)"
   sodipodi:docname="questionMark.svg"
   xmlns:inkscape="http://www.inkscape.org/namespaces/inkscape"
   xmlns:sodipodi="http://sodipodi.sourceforge.net/DTD/sodipodi-0.dtd"
   xmlns="http://www.w3.org/2000/svg"
   xmlns:svg="http://www.w3.org/2000/svg">
  <sodipodi:namedview
     id="namedview1"
     pagecolor="#505050"
     bordercolor="#eeeeee"
     borderopacity="1"
     inkscape:showpageshadow="0"
     inkscape:pageopacity="0"
     inkscape:pagecheckerboard="0"
     inkscape:deskcolor="#505050"
     inkscape:document-units="px"
     inkscape:zoom="5.6967778"
     inkscape:cx="50.291587"
     inkscape:cy="61.964853"
     inkscape:window-width="1712"
     inkscape:window-height="1073"
     inkscape:window-x="0"
     inkscape:window-y="39"
     inkscape:window-maximized="0"
     inkscape:current-layer="layer1" />
  <defs
     id="defs1" />
  <g
     inkscape:label="Layer 1"
     inkscape:groupmode="layer"
     id="layer1">
    <path
       style="fill:#000000;stroke-width:1.68856"
       d="m 55.943706,93.640147 c 2.334103,0.192947 4.82692,-0.26589 7.143436,0 1.816845,0.208539 3.722327,0.912786 5.357575,1.475863 1.684977,0.580214 4.231079,1.778491 4.643233,3.197706 0.175333,0.60376 0,1.61957 0,2.213814 0,2.3426 0.428673,2.26292 -1.428688,4.18162 -0.455498,0.47054 -1.173003,0.66736 -1.785859,0.98391 -2.175816,1.12383 -3.528247,1.12551 -6.071919,1.47587 -0.26105,0.036 -0.453293,0.21001 -0.714342,0.24597 -1.733754,0.2388 -3.461716,-0.4162 -4.643234,-1.22988 -0.50378,-0.34695 -0.794944,-0.60297 -1.071516,-0.98392 -0.743231,-1.02369 0.02466,0.26296 -0.714342,-0.24597 -0.0842,-0.058 0.05325,-0.17265 0,-0.24598 -0.257841,-0.35514 -0.456504,-0.62877 -0.714344,-0.98391 -0.190492,-0.26237 0.190491,-0.72153 0,-0.98391 -0.07531,-0.10369 -0.281873,-0.14227 -0.357173,-0.24598 -0.416545,-0.57374 0,-2.05007 0,-2.705764 0,-0.10131 -0.09455,-0.67282 0,-0.73793 0.0842,-0.058 0.272986,0.058 0.357173,0 0.178588,-0.12303 -0.178589,-0.61495 0,-0.73794 0.0842,-0.058 0.272985,0.058 0.357172,0 0.119052,-0.082 0.238114,-0.655938 0.357172,-0.737927 0.08418,-0.05801 0.272985,0.05801 0.35717,0 0.357172,-0.245981 0,-0.983909 0.357172,-1.22989 0.178588,-0.123032 0.535758,-0.123032 0.714344,-0.24598 0.219435,-0.151114 0.235963,-0.573208 0.714344,-0.737929 0.106478,-0.03671 0.272986,0.05801 0.35717,0 0.04584,-0.03153 0.278158,-0.929497 0.714345,-1.22989"
       id="path3" />
    <path
       style="fill:#000000;stroke-width:1.68856"
       d="m 57.372392,78.635505 c -0.119052,-0.491954 -0.291605,-0.979173 -0.357172,-1.475866 -0.177367,-1.343633 -0.283625,-2.60082 -0.714342,-3.935644 -0.416259,-1.290013 -1.217034,-2.623788 -1.428687,-3.935643 -0.165464,-1.025591 0,-2.162576 0,-3.197711 0,-0.88282 0.425651,-5.809142 0,-6.39542 -0.487278,-0.671159 -0.357172,-1.401988 -0.357172,-2.2138 0,-0.682139 -0.308821,-1.821739 0,-2.459777 0.05325,-0.110001 0.303927,-0.135966 0.357172,-0.245978 0.21019,-0.434264 0,-1.588217 0,-1.967821 0,-2.2138 0,-4.427599 0,-6.6414 0,-0.675658 -0.08515,-5.106889 0,-5.165531 0.02596,-0.01788 4.569587,0.0169 5.714748,-0.245978 0.428605,-0.09838 0.642909,-0.639542 1.071514,-0.737933 0.516998,-0.118688 0.958904,-0.08422 1.428689,-0.245978 0.428605,-0.147587 0.642909,-0.590347 1.071514,-0.737934 0.469784,-0.161765 0.91169,-0.127292 1.428686,-0.245978 0.319465,-0.07333 0.434156,-0.363314 0.714344,-0.491954 0.791801,-0.363533 3.515099,-1.786345 3.92889,-2.2138 1.475344,-1.524065 2.72705,-3.420411 3.571717,-5.165532 0.178181,-0.368129 -0.136938,-0.852689 0,-1.229889 0.240122,-0.66147 0.474287,-1.30653 0.714344,-1.967822 0.144384,-0.397723 -0.116753,-0.827886 0,-1.229888 0.05221,-0.179781 0.304961,-0.312175 0.357172,-0.491956 0.0983,-0.338464 0.501229,-3.983202 0.357172,-4.181622 -0.637395,-0.877923 -3.18908,-2.08204 -4.286061,-2.459777 -0.428608,-0.147587 -0.642909,-0.590346 -1.071517,-0.737932 -0.216466,-0.07453 -0.921843,-0.142903 -1.071514,-0.245978 -0.739001,-0.508937 1.129291,0.0199 -0.357172,-0.491956 -0.809443,-0.278724 -1.683408,-0.456677 -2.500203,-0.737933 -0.462972,-0.15942 -3.235327,-0.245977 -3.928889,-0.245977 -6.601948,0 -9.753788,2.081611 -13.215355,5.657487 -0.484264,0.500256 -0.702568,1.21367 -1.071515,1.721845 -0.190491,0.262375 0.190492,0.721534 0,0.98391 -0.07531,0.103709 -0.281873,0.142264 -0.357172,0.245978 -0.10782,0.148515 0.165098,0.624226 0,0.737933 -0.0842,0.05798 -0.272985,-0.05797 -0.357172,0 -0.168374,0.115956 0.106498,0.345282 0,0.491955 -0.257841,0.355141 -0.456501,0.62877 -0.714342,0.983911 -0.142879,0.196782 0.142858,0.541151 0,0.737934 -0.355955,0.490277 -0.358391,0.985588 -0.714344,1.475866 -0.263363,0.362746 0.400418,1.446083 0,1.721843 -0.228049,0.157054 -1.856851,0 -2.143031,0 -0.800743,0 -4.024291,0.213128 -4.643233,0 -1.378583,-0.474702 -2.594336,-0.737932 -4.286061,-0.737932 -0.396732,0 -2.247643,0.173932 -2.500201,0 -0.168374,-0.115956 0,-0.327971 0,-0.491956 0,-0.424428 -0.28898,-1.569792 0,-1.967821 0.338176,-0.465793 0.714342,-0.650068 0.714342,-1.229889 0,-0.617667 1.346866,-2.101102 1.785859,-2.705756 0.15059,-0.207426 0.563747,-0.284528 0.714344,-0.491954 0.2004,-0.276019 0.150305,-0.698983 0.357172,-0.983912 0.446383,-0.61483 1.473979,-1.323466 1.785858,-1.967821 0.164671,-0.340207 0.357012,-1.475756 0.714345,-1.721845 0.03986,-0.02745 2.00613,-0.889631 2.14303,-0.98391 0.188253,-0.129647 0.168923,-0.362314 0.35717,-0.491956 0.374193,-0.2577 1.514839,-0.305308 1.785861,-0.491956 0.252558,-0.173932 -0.159726,-0.517923 0,-0.737932 0.15059,-0.207428 0.512295,-0.306428 0.714342,-0.491956 0.159726,-0.146672 0.168923,-0.362314 0.357172,-0.491955 0.188253,-0.129646 0.501367,-0.135966 0.714344,-0.245978 1.400241,-0.723241 2.528646,-1.736537 3.928889,-2.459777 1.046544,-0.540552 2.481956,-0.729555 3.571717,-1.22989 2.278926,-1.046302 4.582808,-1.62598 7.143436,-2.2137989 1.256858,-0.288525 5.595206,0 7.143434,0 2.168846,0 4.72879,-0.226337 6.786264,0.245978 0.673216,0.154543 1.169898,0.7718099 1.785859,0.9839109 2.16304,0.744824 3.260682,1.539413 4.286061,2.951733 0.214304,0.295172 0.857213,0.44276 1.071514,0.737932 0.480379,0.661657 1.445984,1.265623 1.785861,1.967823 0.07531,0.15557 -0.07531,0.336385 0,0.491956 0.106477,0.220009 0.607854,0.271946 0.714342,0.491954 0.112948,0.233355 -0.112948,0.504579 0,0.737934 0.439133,0.907269 0.634341,1.80253 1.071516,2.705755 0.371759,0.768072 0.05711,2.863072 0.357172,3.689665 0.06456,0.177868 0.292602,0.314089 0.35717,0.491956 0.164854,0.454144 -0.214315,1.03308 0,1.475867 0.385795,0.797069 0.775924,4.054394 0.357173,4.919555 -0.220982,0.456559 -0.843668,1.005123 -1.071515,1.475866 -0.07531,0.155569 0.07531,0.336385 0,0.491955 -0.135757,0.280458 -0.578597,0.457476 -0.714344,0.737934 -0.212314,0.438651 -0.419097,1.069203 -0.714344,1.475866 -0.300949,0.414516 -0.825707,0.47606 -1.071514,0.98391 -0.121616,0.25127 -0.490525,1.075748 -0.714345,1.229889 -0.08418,0.05798 -0.250682,-0.03667 -0.357172,0 -0.401848,0.138376 -2.874358,2.147403 -3.214545,2.459777 -0.159726,0.146673 -0.168923,0.362313 -0.357172,0.491956 -0.312957,0.215528 -1.830073,0.522404 -2.14303,0.737932 -0.08418,0.05797 0.08418,0.188002 0,0.245978 -0.15468,0.106526 -1.198168,0.38612 -1.428687,0.491956 -0.280188,0.128638 -0.413149,0.388242 -0.714344,0.491956 -0.541988,0.186628 -1.207709,0.226514 -1.785858,0.491955 -0.852883,0.391576 -1.643414,0.836519 -2.500203,1.229888 -0.394017,0.180903 -0.649565,0.592639 -1.071514,0.737934 -0.380985,0.131188 -1.047704,-0.131188 -1.428689,0 -0.998176,0.343713 -2.088339,1.15456 -2.500201,1.721844 -0.314768,0.433548 0,7.555579 0,8.609221 0,2.86974 0,5.739479 0,8.60922 0,1.325411 -0.476769,3.27896 0.357173,4.427598 0.462538,0.637087 -0.255161,1.756884 0,2.459779 0.800592,2.205413 0.35717,4.815647 0.35717,7.133354 0,0.150105 0.139175,0.888068 0,0.98391 -0.02173,0.01497 -5.993555,-0.484246 -6.07192,-0.491956 z"
       id="path4" />
  </g>
</svg>
